<svg xmlns="http://www.w3.org/2000/svg" xmlns:xlink="http://www.w3.org/1999/xlink" width="92" height="92" viewBox="0 0 92 92">
  <defs>
    <filter id="Elipse_125" x="0" y="0" width="92" height="92" filterUnits="userSpaceOnUse">
      <feOffset dy="3" input="SourceAlpha"/>
      <feGaussianBlur stdDeviation="3" result="blur"/>
      <feFlood flood-opacity="0.161"/>
      <feComposite operator="in" in2="blur"/>
      <feComposite in="SourceGraphic"/>
    </filter>
    <linearGradient id="linear-gradient" x1="0.5" y1="1" x2="0.5" gradientUnits="objectBoundingBox">
      <stop offset="0" stop-color="gray" stop-opacity="0.251"/>
      <stop offset="0.54" stop-color="gray" stop-opacity="0.122"/>
      <stop offset="1" stop-color="gray" stop-opacity="0.102"/>
    </linearGradient>
  </defs>
  <g id="Grupo_146" data-name="Grupo 146" transform="translate(-77 -266)">
    <g transform="matrix(1, 0, 0, 1, 77, 266)" filter="url(#Elipse_125)">
      <circle id="Elipse_125-2" data-name="Elipse 125" cx="37" cy="37" r="37" transform="translate(9 6)" fill="#fff"/>
    </g>
    <g id="undraw_profile_pic_ic5t" transform="translate(86 272)">
      <g id="Grupo_143" data-name="Grupo 143" opacity="0.5">
        <circle id="Elipse_114" data-name="Elipse 114" cx="37" cy="37" r="37" fill="url(#linear-gradient)"/>
      </g>
      <circle id="Elipse_115" data-name="Elipse 115" cx="36.22" cy="36.22" r="36.22" transform="translate(0.852 0.544)" fill="#f5f5f5"/>
      <path id="Trazado_450" data-name="Trazado 450" d="M425.565,675.508a36.046,36.046,0,0,0,19.909-5.958c-1.335-7.294-6.414-7.71-6.414-7.71H411.05s-4.793.393-6.29,7.1A36.054,36.054,0,0,0,425.565,675.508Z" transform="translate(-388.459 -602.381)" fill="#aaa"/>
      <circle id="Elipse_116" data-name="Elipse 116" cx="17.482" cy="17.482" r="17.482" transform="translate(19.239 18.518)" fill="#413e4d"/>
      <path id="Trazado_451" data-name="Trazado 451" d="M293.15,476.92h11.2v8.962a5.6,5.6,0,0,1-5.6,5.6h0a5.6,5.6,0,0,1-5.6-5.6V476.92Z" transform="translate(-262.071 -426.358)" opacity="0.1"/>
      <path id="Trazado_452" data-name="Trazado 452" d="M293.523,473h10.5a.355.355,0,0,1,.355.355v8.606a5.6,5.6,0,0,1-5.6,5.6h0a5.6,5.6,0,0,1-5.6-5.6v-8.608a.355.355,0,0,1,.353-.355Z" transform="translate(-262.089 -422.854)" fill="#dedede"/>
      <path id="Trazado_453" data-name="Trazado 453" d="M544.34,606.458a16.122,16.122,0,0,0,11.2.031V605.11h-11.2Z" transform="translate(-513.241 -551.666)" opacity="0.1"/>
      <circle id="Elipse_117" data-name="Elipse 117" cx="16.056" cy="16.056" r="16.056" transform="translate(20.665 23.429)" fill="#dedede"/>
      <path id="Trazado_454" data-name="Trazado 454" d="M489.49,301.637s6.767,13.736,25.855,5.759l-4.444-6.969-7.878-2.827Z" transform="translate(-464.206 -276.757)" opacity="0.1"/>
      <path id="Trazado_455" data-name="Trazado 455" d="M489.49,299.719s6.767,13.736,25.855,5.757l-4.444-6.969-7.878-2.827Z" transform="translate(-464.206 -275.041)" fill="#413e4d"/>
      <path id="Trazado_456" data-name="Trazado 456" d="M486.1,231.57a9.275,9.275,0,0,1,2.3-3.739c3.158-3.122,8.336-3.781,10.992-7.341a2.079,2.079,0,0,1-.954,2.931c2.544-.017,5.493-.24,6.931-2.332a4.759,4.759,0,0,1-.8,5.025c2.255.106,4.665,1.633,4.807,3.886a4.5,4.5,0,0,1-2.077,3.783,11.506,11.506,0,0,1-4.194,1.58C498.818,236.309,483.306,240.271,486.1,231.57Z" transform="translate(-460.879 -207.822)" fill="#413e4d"/>
      <ellipse id="Elipse_118" data-name="Elipse 118" cx="1.494" cy="2.801" rx="1.494" ry="2.801" transform="translate(19.165 36.669)" fill="#dedede"/>
      <ellipse id="Elipse_119" data-name="Elipse 119" cx="1.494" cy="2.801" rx="1.494" ry="2.801" transform="translate(51.282 36.669)" fill="#dedede"/>
    </g>
  </g>
</svg>
