<svg xmlns="http://www.w3.org/2000/svg" xmlns:xlink="http://www.w3.org/1999/xlink" width="92" height="92" viewBox="0 0 92 92">
  <defs>
    <filter id="Elipse_125" x="0" y="0" width="92" height="92" filterUnits="userSpaceOnUse">
      <feOffset dy="3" input="SourceAlpha"/>
      <feGaussianBlur stdDeviation="3" result="blur"/>
      <feFlood flood-opacity="0.161"/>
      <feComposite operator="in" in2="blur"/>
      <feComposite in="SourceGraphic"/>
    </filter>
    <linearGradient id="linear-gradient" x1="0.5" y1="1" x2="0.5" gradientUnits="objectBoundingBox">
      <stop offset="0" stop-color="gray" stop-opacity="0.251"/>
      <stop offset="0.54" stop-color="gray" stop-opacity="0.122"/>
      <stop offset="1" stop-color="gray" stop-opacity="0.102"/>
    </linearGradient>
  </defs>
  <g id="Grupo_301" data-name="Grupo 301" transform="translate(-77 -266)">
    <g transform="matrix(1, 0, 0, 1, 77, 266)" filter="url(#Elipse_125)">
      <circle id="Elipse_125-2" data-name="Elipse 125" cx="37" cy="37" r="37" transform="translate(9 6)" fill="#fff"/>
    </g>
    <g id="undraw_profile_pic_ic5t" transform="translate(86 272)">
      <g id="Grupo_143" data-name="Grupo 143" opacity="0.5">
        <circle id="Elipse_114" data-name="Elipse 114" cx="37" cy="37" r="37" fill="url(#linear-gradient)"/>
      </g>
      <circle id="Elipse_115" data-name="Elipse 115" cx="36.22" cy="36.22" r="36.22" transform="translate(0.852 0.544)" fill="#f5f5f5"/>
      <path id="Trazado_1069" data-name="Trazado 1069" d="M46,30.877c0,11.136-10.3,9.452-23,9.452S0,42.013,0,30.877,5.03,0,23,0C41.589,0,46,19.74,46,30.877" transform="translate(14 20)" fill="#413e4d"/>
      <path id="Trazado_450" data-name="Trazado 450" d="M425.565,675.508a36.046,36.046,0,0,0,19.909-5.958c-1.335-7.294-6.414-7.71-6.414-7.71H411.05s-4.793.393-6.29,7.1A36.054,36.054,0,0,0,425.565,675.508Z" transform="translate(-388.459 -602.381)" fill="#aaa"/>
      <path id="Trazado_451" data-name="Trazado 451" d="M293.15,476.92h11.2v8.962a5.6,5.6,0,0,1-5.6,5.6h0a5.6,5.6,0,0,1-5.6-5.6V476.92Z" transform="translate(-262.071 -426.358)" opacity="0.1"/>
      <path id="Trazado_452" data-name="Trazado 452" d="M293.523,473h10.5a.355.355,0,0,1,.355.355v8.606a5.6,5.6,0,0,1-5.6,5.6h0a5.6,5.6,0,0,1-5.6-5.6v-8.608a.355.355,0,0,1,.353-.355Z" transform="translate(-262.089 -422.854)" fill="#dedede"/>
      <path id="Trazado_453" data-name="Trazado 453" d="M544.34,606.458a16.122,16.122,0,0,0,11.2.031V605.11h-11.2Z" transform="translate(-513.241 -551.666)" opacity="0.1"/>
      <circle id="Elipse_117" data-name="Elipse 117" cx="16.056" cy="16.056" r="16.056" transform="translate(20.665 23.429)" fill="#dedede"/>
      <ellipse id="Elipse_118" data-name="Elipse 118" cx="1.494" cy="2.801" rx="1.494" ry="2.801" transform="translate(19.165 36.669)" fill="#dedede"/>
      <ellipse id="Elipse_119" data-name="Elipse 119" cx="1.494" cy="2.801" rx="1.494" ry="2.801" transform="translate(51.282 36.669)" fill="#dedede"/>
      <path id="Trazado_1070" data-name="Trazado 1070" d="M14.169,35.867H20.29l2.7-7.562.54,7.562h2.926l1.575-4.411.315,4.411h21.74A16.384,16.384,0,0,0,33.7,19.483H30.553A16.384,16.384,0,0,0,14.169,35.867Z" transform="translate(4.872 0.517)" fill="#413e4d"/>
      <rect id="Rectángulo_459" data-name="Rectángulo 459" width="46" height="40.42" transform="translate(14 20)" fill="none"/>
    </g>
  </g>
</svg>
